<?xml version="1.0" standalone="no"?>
<!DOCTYPE svg PUBLIC "-//W3C//DTD SVG 20010904//EN"
 "http://www.w3.org/TR/2001/REC-SVG-20010904/DTD/svg10.dtd">
<svg version="1.0" xmlns="http://www.w3.org/2000/svg"
 width="500.000000pt" height="500.000000pt" viewBox="0 0 500.000000 500.000000"
 preserveAspectRatio="xMidYMid meet">
<metadata>
Created by potrace 1.14, written by Peter Selinger 2001-2017
</metadata>
<g transform="translate(0.000000,500.000000) scale(0.100000,-0.100000)"
fill="#000000" stroke="none">
<path d="M1855 4260 c-178 -36 -395 -197 -439 -325 -18 -51 -19 -209 -2 -305
18 -101 76 -226 132 -283 30 -31 119 -87 137 -87 3 0 -5 30 -16 68 -29 99 -29
284 1 369 51 144 155 240 304 279 156 40 357 -30 464 -163 l42 -52 25 38 c93
140 333 223 497 172 150 -47 274 -181 296 -320 12 -73 22 -54 19 34 -12 275
-152 468 -394 542 -48 14 -99 26 -116 26 -73 0 -232 -79 -294 -147 -31 -33
-39 -32 -76 5 -70 72 -162 118 -287 144 -74 16 -226 18 -293 5z"/>
<path d="M2941 4246 c207 -72 333 -214 382 -429 20 -89 16 -280 -8 -357 -90
-289 -296 -373 -525 -214 -62 43 -118 106 -237 264 -166 221 -243 285 -386
321 -54 13 -169 7 -229 -12 -45 -15 -47 -22 -10 -38 113 -52 301 -232 405
-388 106 -159 211 -385 231 -499 3 -15 10 -50 15 -78 6 -28 13 -67 17 -86 13
-72 12 -415 -2 -525 -8 -60 -16 -115 -18 -122 -9 -22 7 -21 45 3 21 13 41 24
43 24 10 0 256 149 322 195 135 94 277 223 371 337 110 134 206 310 259 472
77 238 72 483 -15 700 -114 285 -356 457 -640 455 l-86 0 66 -23z"/>
<path d="M1352 3822 c-46 -106 -64 -202 -68 -347 -2 -109 1 -159 16 -226 93
-428 365 -772 825 -1045 107 -64 343 -194 352 -194 11 0 -1 102 -16 136 -21
46 -64 79 -187 145 -193 102 -346 223 -401 316 -36 61 -64 140 -70 196 -13
114 60 163 187 128 67 -19 81 -22 126 -22 47 -1 98 22 108 47 9 24 -41 75
-131 134 -91 60 -180 96 -316 126 -185 41 -262 96 -333 239 -44 90 -66 195
-68 318 0 53 -1 97 -2 97 -1 0 -11 -21 -22 -48z"/>
<path d="M2917 3715 c-98 -25 -160 -105 -160 -205 0 -154 152 -255 295 -196
155 65 171 285 28 377 -42 27 -111 37 -163 24z"/>
<path d="M1945 2751 c33 -37 119 -98 180 -129 47 -24 255 -102 270 -102 5 0
-6 44 -18 68 -13 27 -83 71 -124 78 -78 12 -176 41 -247 71 -67 28 -77 31 -61
14z"/>
<path d="M1897 2672 c84 -137 297 -295 494 -366 88 -32 89 -32 84 -3 -13 65
-19 79 -47 102 -34 29 -60 41 -203 95 -152 56 -176 70 -322 184 l-24 19 18
-31z"/>
<path d="M935 1840 c-67 -21 -107 -85 -103 -164 2 -32 61 -82 114 -95 118 -31
144 -42 144 -62 0 -40 -112 -49 -179 -15 -16 9 -34 16 -39 16 -10 0 -42 -64
-42 -85 0 -25 89 -50 180 -50 127 1 196 45 204 129 8 78 -32 115 -163 151 -79
21 -104 42 -82 69 17 21 99 21 148 1 20 -8 37 -14 39 -12 2 1 12 23 23 47 l20
44 -32 15 c-39 17 -190 24 -232 11z"/>
<path d="M1279 1845 c-1 0 -2 -102 -3 -227 l-1 -228 182 0 183 0 0 50 0 50
-120 0 -121 0 3 40 2 40 97 0 c105 0 106 0 105 60 l-1 35 -101 3 -101 3 0 37
0 38 114 -1 114 -1 -3 50 -3 51 -172 0 c-95 0 -174 0 -174 0z"/>
<path d="M1722 1842 c-9 -3 -12 -59 -12 -228 l0 -224 65 0 65 0 0 60 0 60 35
0 c31 0 38 -6 75 -60 l41 -60 69 0 69 0 -50 72 -49 72 25 13 c40 22 68 88 62
145 -14 111 -79 150 -261 153 -67 1 -127 0 -134 -3z m255 -128 c19 -26 16 -57
-7 -82 -17 -17 -32 -22 -75 -22 l-55 0 0 64 c0 59 2 65 23 68 38 6 100 -9 114
-28z"/>
<path d="M2194 1841 c-2 -2 -4 -105 -4 -228 l0 -223 183 0 183 0 0 50 0 50
-117 0 c-127 0 -131 2 -121 58 4 21 9 22 103 22 l99 0 0 50 0 50 -98 0 c-54 0
-101 2 -104 5 -3 3 -2 20 1 38 l7 32 109 0 110 0 0 50 0 50 -173 0 c-95 0
-175 -2 -178 -4z"/>
<path d="M2630 1801 c-1 -58 -1 -288 0 -358 l0 -53 59 0 c38 0 60 4 63 13 2 6
4 60 3 120 0 97 1 106 15 88 8 -10 53 -64 99 -120 l83 -101 54 0 54 0 -2 227
-3 228 -61 0 -61 0 0 -113 c0 -62 -2 -115 -5 -117 -2 -2 -46 49 -98 113 l-95
116 -52 2 -53 1 0 -46z"/>
<path d="M3155 1841 c-3 -2 -5 -105 -5 -228 l0 -223 65 0 65 0 -2 227 -3 228
-58 0 c-32 1 -60 -1 -62 -4z"/>
<path d="M3333 1836 c-4 -5 -6 -28 -6 -50 l0 -41 70 -3 70 -3 -1 -162 c-1 -89
0 -168 2 -174 3 -9 25 -13 66 -13 l61 0 0 173 0 172 65 3 c70 3 81 11 74 51
-5 23 -3 24 9 11 8 -8 46 -68 84 -132 l70 -117 -2 -80 -2 -81 64 0 c43 0 63 4
64 13 1 6 2 44 3 82 1 69 2 72 84 208 45 76 82 141 82 146 0 4 -25 7 -56 6
-63 -1 -62 0 -125 -107 -22 -38 -42 -68 -44 -68 -2 0 -25 36 -51 80 -26 45
-52 84 -58 88 -17 10 -517 9 -523 -2z"/>
<path d="M850 1151 c0 -47 4 -81 10 -81 6 0 10 16 10 35 0 34 1 35 40 35 39 0
40 -1 40 -35 0 -19 5 -35 10 -35 6 0 10 33 10 80 0 47 -4 80 -10 80 -5 0 -10
-16 -10 -35 0 -34 -1 -35 -40 -35 -38 0 -40 2 -40 29 0 17 -4 33 -10 36 -6 4
-10 -23 -10 -74z"/>
<path d="M1202 1222 c-8 -6 -12 -32 -11 -80 l1 -72 49 0 c27 0 49 5 49 10 0 6
-18 10 -40 10 -36 0 -40 3 -40 25 0 22 4 25 35 25 19 0 35 5 35 10 0 6 -16 10
-35 10 -31 0 -35 3 -33 25 2 22 7 25 41 25 21 0 36 4 33 8 -7 11 -67 13 -84 4z"/>
<path d="M1525 1163 c-15 -38 -29 -74 -32 -80 -3 -7 0 -13 5 -13 6 0 13 8 16
18 8 25 73 23 92 -3 8 -10 16 -16 19 -13 7 6 -55 158 -65 158 -4 0 -20 -30
-35 -67z m49 2 c9 -37 8 -39 -19 -41 -20 -1 -24 3 -19 15 3 9 9 24 11 34 7 25
20 21 27 -8z"/>
<path d="M1839 1216 c0 -9 -1 -36 -1 -61 0 -90 -2 -85 47 -85 25 0 45 5 45 10
0 6 -16 10 -35 10 -38 0 -37 -3 -37 87 0 40 -17 74 -19 39z"/>
<path d="M2127 1218 c-8 -5 -7 -8 6 -9 9 -1 23 -2 30 -3 8 -1 13 -24 15 -68 4
-90 22 -88 22 2 0 68 1 70 25 70 14 0 25 4 25 9 0 11 -106 10 -123 -1z"/>
<path d="M2468 1224 c-4 -6 -8 -37 -9 -70 -2 -78 -1 -84 12 -84 6 0 10 10 9
23 -4 43 -1 47 40 47 39 0 40 -1 40 -35 0 -19 5 -35 10 -35 6 0 10 34 10 81 0
51 -4 78 -10 74 -5 -3 -10 -19 -10 -36 0 -27 -2 -29 -39 -29 -39 0 -40 1 -43
38 -2 20 -6 32 -10 26z"/>
<path d="M3055 1205 c-50 -50 -18 -135 51 -135 35 0 74 25 74 47 0 14 -4 13
-23 -5 -27 -26 -69 -29 -91 -6 -24 23 -20 70 6 88 31 22 54 20 78 -6 11 -12
23 -18 27 -14 12 12 -45 56 -73 56 -14 0 -36 -11 -49 -25z"/>
<path d="M3444 1218 c-15 -23 -62 -143 -58 -147 2 -3 13 5 24 17 13 14 29 19
47 17 16 -2 31 -4 36 -4 4 -1 7 -8 7 -16 0 -8 5 -15 10 -15 14 0 13 1 -16 77
-31 79 -39 90 -50 71z m30 -73 c5 -17 2 -21 -19 -21 -27 0 -32 15 -14 48 12
23 19 16 33 -27z"/>
<path d="M3735 1222 c-10 -10 -5 -152 5 -152 6 0 10 14 10 30 0 40 22 39 54
-2 28 -37 46 -33 22 5 -15 22 -15 26 -1 37 21 17 19 66 -2 76 -22 9 -80 14
-88 6z m78 -21 c14 -2 7 -51 -8 -52 -8 -1 -23 -2 -32 -3 -13 -1 -19 8 -21 31
-3 33 -2 34 61 24z"/>
<path d="M4065 1222 c-3 -3 -5 -38 -5 -79 l0 -73 50 0 c28 0 50 5 50 10 0 6
-18 10 -40 10 -36 0 -40 3 -40 25 0 22 4 25 35 25 19 0 35 5 35 10 0 6 -16 10
-36 10 -31 0 -35 3 -32 23 2 17 11 23 43 28 23 3 34 8 25 11 -17 7 -78 7 -85
0z"/>
</g>
</svg>
